<svg width="200" height="200" viewBox="0 0 200 200" xmlns="http://www.w3.org/2000/svg">
  <!-- Circular Background -->
  <circle cx="100" cy="100" r="95" fill="#2C5F7F"/>
  
  <!-- Shopping Cart -->
  <g transform="translate(35, 60)">
    <!-- Cart Body -->
    <path d="M 10 25 L 20 25 L 25 60 L 90 60 L 95 25 L 115 25" 
          stroke="#FFFFFF" stroke-width="6" fill="none" stroke-linecap="round" stroke-linejoin="round"/>
    
    <!-- Cart Grid Lines -->
    <line x1="30" y1="35" x2="85" y2="35" stroke="#F5A623" stroke-width="4"/>
    <line x1="32.5" y1="45" x2="87.5" y2="45" stroke="#F5A623" stroke-width="4"/>
    <line x1="35" y1="55" x2="90" y2="55" stroke="#F5A623" stroke-width="4"/>
    
    <line x1="40" y1="27.5" x2="37.5" y2="57.5" stroke="#F5A623" stroke-width="4"/>
    <line x1="57.5" y1="27.5" x2="55" y2="57.5" stroke="#F5A623" stroke-width="4"/>
    <line x1="75" y1="27.5" x2="72.5" y2="57.5" stroke="#F5A623" stroke-width="4"/>
    
    <!-- Cart Wheels -->
    <circle cx="35" cy="72.5" r="7.5" fill="#FFFFFF"/>
    <circle cx="35" cy="72.5" r="4" fill="#F5A623"/>
    <circle cx="80" cy="72.5" r="7.5" fill="#FFFFFF"/>
    <circle cx="80" cy="72.5" r="4" fill="#F5A623"/>
    
    <!-- Book icon on wheel -->
    <rect x="77.5" y="70" width="5" height="5" fill="#FFFFFF" rx="0.5"/>
  </g>
  
  <!-- Graduation Cap -->
  <g transform="translate(65, 30)">
    <!-- Cap Board -->
    <path d="M 0 20 L 35 10 L 70 20 L 35 30 Z" fill="#1E3A5F"/>
    
    <!-- Cap Top -->
    <ellipse cx="35" cy="20" rx="35" ry="7.5" fill="#2C5F7F"/>
    
    <!-- Tassel -->
    <line x1="70" y1="20" x2="75" y2="30" stroke="#F5A623" stroke-width="1.5"/>
    <circle cx="75" cy="31" r="2" fill="#F5A623"/>
  </g>
  
  <!-- Building/Campus Icon (simplified) -->
  <g transform="translate(45, 15)">
    <path d="M 50 15 L 42.5 20 L 42.5 12.5 L 50 7.5 L 57.5 12.5 L 57.5 20 Z" 
          fill="#FFFFFF" opacity="0.3"/>
    <rect x="44" y="15" width="2.5" height="4" fill="#2C5F7F"/>
    <rect x="53.5" y="15" width="2.5" height="4" fill="#2C5F7F"/>
  </g>
</svg>
